# xmcd
#
# Track frame offsets:
#	150
#	10945
#	25090
#	35732
#	50885
#	61670
#	77607
#	87630
#	97932
#	107972
#	119605
#	138835
#	150457
#	161247
#	170620
#	179860
#	192127
#	202862
#	213225
#	225477
#
# Disc length: 3140
#
# Revision: 2
# Processed by: cddbd v1.5.1PL0 Copyright (c) Steve Scherf et al.
# Submitted via: VisiTrax 2.9.6.190 - For more info visit www.synapsa.com
# Normalized: r1:DSETVAR1
#
DISCID=0f0c4214
DTITLE=Various Artist - The Essential Country Classics
DYEAR=1997
DGENRE=Country
TTITLE0=Roger Miller - King of the road
TTITLE1=Glen Campbell - Rhinestone Cowboy
TTITLE2=Hank Locklin - Please help me, I'm falling
TTITLE3=Diana Trask - I fall to pieces
TTITLE4=George Jones - Who shot Sam
TTITLE5=Bill Anderson - Detroit City
TTITLE6=Dave Dudley - Six days on the road
TTITLE7=Johnny Paycheck - A-11
TTITLE8=Patsy Cline - Pick me up on the way down
TTITLE9=Sanford Clark - The fool
TTITLE10=Bobby Bare - Me and Bobby McGhee
TTITLE11=Buck Owens - Foolin' around
TTITLE12=Billy Walker - Charlie's shoes
TTITLE13=Jeannie C Riley - The girl most likely
TTITLE14=Faron Young - Hello walls
TTITLE15=Red Simpson - Roll truck roll
TTITLE16=Waylon Jennings - Dream baby
TTITLE17=Conway Twitty - Born to sing the blues
TTITLE18=Johnny Cash - Folsom Prison blues
TTITLE19=Carl Perkins - Blue suede shoes
EXTD=
EXTT0=
EXTT1=
EXTT2=
EXTT3=
EXTT4=
EXTT5=
EXTT6=
EXTT7=
EXTT8=
EXTT9=
EXTT10=
EXTT11=
EXTT12=
EXTT13=
EXTT14=
EXTT15=
EXTT16=
EXTT17=
EXTT18=
EXTT19=
PLAYORDER=
